Coordinates
version=1
nRows=12
nColumns=34
inDegrees=yes

Units are S.I. units (second, meters, Newtons, ...)
If the header above contains a line with 'inDegrees', this indicates whether rotational values are in degrees (yes) or radians (no).

endheader
time	pelvis_tilt	pelvis_list	pelvis_rotation	pelvis_tx	pelvis_ty	pelvis_tz	hip_flexion_r	hip_adduction_r	hip_rotation_r	knee_angle_r	ankle_angle_r	subtalar_angle_r	mtp_angle_r	hip_flexion_l	hip_adduction_l	hip_rotation_l	knee_angle_l	ankle_angle_l	subtalar_angle_l	mtp_angle_l	lumbar_extension	lumbar_bending	lumbar_rotation	arm_flex_r	arm_add_r	arm_rot_r	elbow_flex_r	pro_sup_r	arm_flex_l	arm_add_l	arm_rot_l	elbow_flex_l	pro_sup_l
      2.70000000	      7.32606531	     -0.49749835	    -24.29282132	      0.33100419	      0.99554471	      0.14568447	     -7.01185851	     -5.03137199	    -14.44709361	      3.71778303	     12.21569039	     -1.23099243	      0.00000000	     -2.10074307	     -6.28870527	    -13.91931576	      7.81994220	     11.50284198	     -0.22818954	      0.00000000	    -11.62503787	      0.08534061	      1.38323226	     10.45592856	    -13.09438719	     22.11845667	     19.23418195	    118.26495470	      8.55307265	    -10.91406714	     23.05033951	     18.13527258	    115.33689676
      2.71666670	      7.23958722	     -0.36262754	    -24.10758278	      0.33037372	      0.99550170	      0.14636248	     -7.00245656	     -4.98363504	    -14.53123630	      3.48662180	     12.27370742	     -1.26129914	      0.00000000	     -1.98243548	     -6.26541264	    -13.92755640	      7.62413685	     11.34237970	     -0.07102948	      0.00000000	    -11.58210141	      0.06501608	      1.59547000	     10.25701753	    -13.10576131	     22.06383847	     19.04278387	    118.28413101	      8.90680776	    -10.73397295	     22.93170072	     18.28473500	    115.32530913
      2.73333330	      7.25294958	     -0.29959519	    -24.10943732	      0.33001068	      0.99559554	      0.14752550	     -7.00575307	     -4.96853443	    -14.53193487	      3.48899701	     12.27322064	     -1.26070207	      0.00000000	     -1.98248631	     -6.28171381	    -13.92704870	      7.62023359	     11.34091404	     -0.06989357	      0.00000000	    -11.58722854	      0.08464044	      1.59184266	     10.24978094	    -13.10696636	     22.06315163	     19.03804923	    118.28438429	      8.91460430	    -10.72076941	     22.93134802	     18.29035447	    115.32543065
      2.75000000	      7.16055565	     -0.25029664	    -23.96992857	      0.32937996	      0.99563071	      0.14836943	     -6.98048238	     -4.85494724	    -14.64863886	      3.33162215	     12.27490819	     -1.27750004	      0.00000000	     -1.89657827	     -6.35509482	    -13.87644371	      7.46264939	     11.04508970	      0.19252768	      0.00000000	    -11.55218343	      0.14736110	      1.93654623	     10.04327377	    -13.10115714	     21.93393615	     18.62548572	    118.30795636	      9.32492615	    -10.48699820	     22.77933883	     18.53246292	    115.32188563
      2.76666670	      7.17179736	     -0.19343710	    -23.96812171	      0.32900261	      0.99571134	      0.14958850	     -6.99030202	     -4.83251995	    -14.64271877	      3.33927042	     12.27483908	     -1.27097879	      0.00000000	     -1.91071377	     -6.36870525	    -13.89073626	      7.44786334	     11.04020937	      0.19221549	      0.00000000	    -11.51495721	      0.18624224	      1.90689517	     10.04596582	    -13.10594712	     21.92614184	     18.60492483	    118.30920294	      9.42900585	    -10.44260804	     22.77373294	     18.58362264	    115.32276659
      2.78333330	      7.11136068	     -0.27439749	    -23.84659787	      0.32785587	      0.99589669	      0.15015314	     -6.91844140	     -4.63308000	    -14.70079770	      3.36828962	     12.25467915	     -1.24069849	      0.00000000	     -1.86124572	     -6.56035436	    -13.89787793	      7.30841449	     10.79630125	      0.34671978	      0.00000000	    -11.64088707	      0.44754276	      2.21909622	     10.17119253	    -13.15991729	     21.76011242	     18.10045166	    118.33889550	      9.92187419	    -10.21212561	     22.70856012	     18.92991115	    115.35620773
      2.80000000	      7.14219779	     -0.22750848	    -23.84224462	      0.32754770	      0.99601075	      0.15148137	     -6.94497216	     -4.61439098	    -14.69582939	      3.38395241	     12.25390823	     -1.23281913	      0.00000000	     -1.89225226	     -6.58278526	    -13.91652108	      7.30022924	     10.79277296	      0.33970759	      0.00000000	    -11.54313151	      0.49423573	      2.19569320	     10.22311045	    -13.15337975	     21.75168108	     18.09229737	    118.34064646	     10.06216468	    -10.14779967	     22.70840790	     19.00326197	    115.35914241
      2.81666670	      7.09492109	     -0.47092658	    -23.86785259	      0.32607677	      0.99624441	      0.15232694	     -6.86429873	     -4.28747713	    -14.71917231	      3.51274970	     12.13923707	     -1.03528779	      0.00000000	     -1.94093520	     -6.92751789	    -14.09117267	      7.17586666	     10.60419726	      0.28165061	      0.00000000	    -11.74484595	      0.88923448	      2.53993362	     10.61213990	    -13.11438684	     21.55277811	     17.34521547	    118.43263416	     10.46714062	     -9.96630535	     22.84424502	     19.56705486	    115.50108508
      2.83333330	      7.13118017	     -0.42829188	    -23.87694811	      0.32579250	      0.99633708	      0.15377317	     -6.89820646	     -4.26621133	    -14.72053335	      3.52168139	     12.14866356	     -1.03346952	      0.00000000	     -1.97627524	     -6.95387186	    -14.09353360	      7.18137737	     10.59417148	      0.28379011	      0.00000000	    -11.62014924	      0.90187759	      2.52207434	     10.69853408	    -13.11131505	     21.54753756	     17.36205168	    118.43479244	     10.59734275	     -9.85962967	     22.85609034	     19.65500446	    115.50638344
      2.85000000	      7.07731246	     -0.59463670	    -23.95363203	      0.32413493	      0.99641991	      0.15445500	     -6.75275081	     -4.02841863	    -14.72883332	      3.64664222	     12.21918777	     -0.82826487	      0.00000000	     -1.94273665	     -7.21689567	    -14.20373009	      7.12964930	     10.38766395	      0.18095890	      0.00000000	    -11.83454637	      1.22060720	      2.83533495	     11.16108396	    -13.17060650	     21.53706061	     16.98645262	    118.61281465	     10.87130437	     -9.78102269	     23.33883373	     20.74307928	    115.76135057
      2.86666670	      7.05665884	     -0.54565383	    -23.89720583	      0.32321189	      0.99634662	      0.15519933	     -6.71029455	     -3.99072610	    -14.73013219	      3.59484378	     12.28568498	     -0.80222762	      0.00000000	     -1.86618496	     -7.23922120	    -14.16840421	      7.07323514	     10.27715422	      0.24072075	      0.00000000	    -11.82429086	      1.27580967	      2.92657717	     11.39982359	    -13.27063519	     21.54866886	     17.00594587	    118.64820280	     11.17889575	     -9.58139163	     23.43992323	     21.08955094	    115.80875788
      2.88333330	      7.04055886	     -0.54801104	    -23.86815354	      0.32199419	      0.99624775	      0.15601749	     -6.61936556	     -3.90514695	    -14.74944423	      3.65269140	     12.33701087	     -0.78113338	      0.00000000	     -1.78017737	     -7.33408913	    -14.12885515	      7.06904104	     10.11409567	      0.28264663	      0.00000000	    -11.88554860	      1.35828311	      3.06931987	     11.68503914	    -13.33602263	     21.60563882	     17.06368895	    118.70700960	     11.47285944	     -9.43271498	     23.63369207	     21.65374335	    115.88688776
